<svg width="144" height="140" viewBox="0 0 144 140" fill="none" xmlns="http://www.w3.org/2000/svg">
<path d="M63.6339 100.837L70.177 107.38L60.6777 110.888L63.6339 100.837Z" fill="#333333"/>
<path d="M20.4521 25.9365H94.4871" stroke="#AFE596" stroke-width="7" stroke-miterlimit="10" stroke-linecap="round" stroke-linejoin="round"/>
<path d="M20.4521 47.8721H90.6482" stroke="#AFE596" stroke-width="7" stroke-miterlimit="10" stroke-linecap="round" stroke-linejoin="round"/>
<path d="M20.4521 69.8086H67.3675" stroke="#AFE596" stroke-width="7" stroke-miterlimit="10" stroke-linecap="round" stroke-linejoin="round"/>
<path d="M20.4521 91.7456H53.9239" stroke="#AFE596" stroke-width="7" stroke-miterlimit="10" stroke-linecap="round" stroke-linejoin="round"/>
<path d="M20.4521 113.681H48.2728" stroke="#AFE596" stroke-width="7" stroke-miterlimit="10" stroke-linecap="round" stroke-linejoin="round"/>
<path d="M63.6339 100.837L70.177 107.38L60.6777 110.888L63.6339 100.837Z" fill="#333333"/>
<path d="M70.8262 107.419L86.3579 102.025L129.106 59.277L111.409 41.5796L68.6603 84.3282L63.248 99.8782L70.8262 107.419Z" stroke="#333333" stroke-width="7" stroke-miterlimit="10" stroke-linecap="round" stroke-linejoin="round"/>
<path d="M118.518 34.4671L122.783 30.2021L140.48 47.8995L136.006 52.374" stroke="#333333" stroke-width="7" stroke-miterlimit="10" stroke-linecap="round" stroke-linejoin="round"/>
<path d="M69.6924 83.2939L87.3897 100.991" stroke="#333333" stroke-width="7" stroke-miterlimit="10" stroke-linecap="round" stroke-linejoin="round"/>
<path d="M63.2581 99.8413L59.4658 111.218L70.8677 107.401" stroke="#333333" stroke-width="7" stroke-miterlimit="10" stroke-linecap="round" stroke-linejoin="round"/>
<path d="M99.918 54.1304L116.924 71.1362" stroke="#333333" stroke-width="7" stroke-miterlimit="10" stroke-linecap="round" stroke-linejoin="round"/>
<path d="M114.939 92.713C114.939 90.5039 113.148 88.713 110.939 88.713C108.73 88.713 106.939 90.5039 106.939 92.713H114.939ZM106.939 27.1864C106.939 29.3955 108.73 31.1864 110.939 31.1864C113.148 31.1864 114.939 29.3955 114.939 27.1864H106.939ZM106.939 92.713V125.618H114.939V92.713H106.939ZM100.939 131.618H14V139.618H100.939V131.618ZM8 125.618V14H0V125.618H8ZM14 8H100.939V0H14V8ZM106.939 14V27.1864H114.939V14H106.939ZM100.939 8C104.253 8 106.939 10.6863 106.939 14H114.939C114.939 6.26802 108.671 0 100.939 0V8ZM8 14C8 10.6863 10.6863 8 14 8V0C6.26802 0 0 6.26801 0 14H8ZM14 131.618C10.6863 131.618 8 128.931 8 125.618H0C0 133.35 6.268 139.618 14 139.618V131.618ZM106.939 125.618C106.939 128.931 104.253 131.618 100.939 131.618V139.618C108.671 139.618 114.939 133.35 114.939 125.618H106.939Z" fill="#333333"/>
</svg>
