<svg width="24" height="24" viewBox="0 0 24 24" fill="none" xmlns="http://www.w3.org/2000/svg">
<path d="M14.7362 4.06395C15.2551 4.26336 15.5227 4.86915 15.3338 5.41702L10.5456 19.3051C10.3567 19.853 9.78282 20.1355 9.26384 19.936C8.74486 19.7366 8.47727 19.1309 8.66617 18.583L13.4544 4.6949C13.6433 4.14703 14.2172 3.86454 14.7362 4.06395ZM4.41421 12.2561L7.94975 15.9885C8.34027 16.4008 8.34027 17.0692 7.94975 17.4815C7.55922 17.8937 6.92606 17.8937 6.53553 17.4815L2.29289 13.0026C1.90237 12.5904 1.90237 11.9219 2.29289 11.5097L6.53553 7.03085C6.92606 6.61858 7.55922 6.61858 7.94975 7.03085C8.34027 7.44311 8.34027 8.11152 7.94975 8.52379L4.41421 12.2561ZM19.5858 12.2561L16.0503 8.52379C15.6597 8.11152 15.6597 7.44311 16.0503 7.03085C16.4408 6.61858 17.0739 6.61858 17.4645 7.03085L21.7071 11.5097C22.0976 11.9219 22.0976 12.5904 21.7071 13.0026L17.4645 17.4815C17.0739 17.8937 16.4408 17.8937 16.0503 17.4815C15.6597 17.0692 15.6597 16.4008 16.0503 15.9885L19.5858 12.2561Z" fill="white"/>
</svg>
