<svg width="23" height="20" viewBox="0 0 23 20" fill="none" xmlns="http://www.w3.org/2000/svg">
<path d="M17.9232 4.0982V2.8374L7.6532 2.83646C7.57882 2.83646 7.51849 2.77448 7.51849 2.69807L7.49268 2.12823C7.4491 1.45662 6.98937 1 6.36693 1H2.12699C1.50455 1 1 1.50459 1 2.12699V17.5077" stroke="black" stroke-width="1.2" stroke-miterlimit="10" stroke-linecap="round" stroke-linejoin="round"/>
<path d="M2.90495 17.3454C2.68342 18.0795 2.07011 18.9003 1.44141 18.9961L17.9385 19.0001C18.561 19.0001 18.8113 18.8353 19.0655 17.8732C19.3197 16.911 21.6951 5.98064 21.6951 5.98064C21.6951 5.77316 21.527 5.60498 21.3195 5.60498H5.88688C5.6794 5.60498 5.51122 5.77316 5.51122 5.98064C5.51122 5.98064 3.12648 16.6114 2.90495 17.3454Z" fill="#00A7FF" stroke="black" stroke-width="1.2" stroke-miterlimit="10" stroke-linecap="round" stroke-linejoin="round"/>
</svg>
