<svg width="40" height="40" viewBox="0 0 40 40" fill="none" xmlns="http://www.w3.org/2000/svg">
<rect width="40" height="40" fill="#F8F8F8"/>
<path d="M21.3138 19.8998L24.8488 16.3638C24.9443 16.2716 25.0205 16.1612 25.0729 16.0392C25.1253 15.9172 25.1529 15.786 25.1541 15.6532C25.1552 15.5204 25.1299 15.3888 25.0796 15.2659C25.0294 15.143 24.9551 15.0313 24.8612 14.9374C24.7673 14.8435 24.6557 14.7693 24.5328 14.719C24.4099 14.6687 24.2782 14.6434 24.1454 14.6446C24.0126 14.6457 23.8814 14.6733 23.7594 14.7257C23.6374 14.7781 23.5271 14.8543 23.4348 14.9498L19.8988 18.4848L16.3638 14.9498C16.2716 14.8543 16.1612 14.7781 16.0392 14.7257C15.9172 14.6733 15.786 14.6457 15.6532 14.6446C15.5204 14.6434 15.3888 14.6687 15.2659 14.719C15.143 14.7693 15.0313 14.8435 14.9374 14.9374C14.8435 15.0313 14.7693 15.143 14.719 15.2659C14.6687 15.3888 14.6434 15.5204 14.6446 15.6532C14.6457 15.786 14.6733 15.9172 14.7257 16.0392C14.7781 16.1612 14.8543 16.2716 14.9498 16.3638L18.4848 19.8988L14.9498 23.4348C14.8543 23.5271 14.7781 23.6374 14.7257 23.7594C14.6733 23.8814 14.6457 24.0126 14.6446 24.1454C14.6434 24.2782 14.6687 24.4099 14.719 24.5328C14.7693 24.6557 14.8435 24.7673 14.9374 24.8612C15.0313 24.9551 15.143 25.0294 15.2659 25.0796C15.3888 25.1299 15.5204 25.1552 15.6532 25.1541C15.786 25.1529 15.9172 25.1253 16.0392 25.0729C16.1612 25.0205 16.2716 24.9443 16.3638 24.8488L19.8988 21.3138L23.4348 24.8488C23.5271 24.9443 23.6374 25.0205 23.7594 25.0729C23.8814 25.1253 24.0126 25.1529 24.1454 25.1541C24.2782 25.1552 24.4099 25.1299 24.5328 25.0796C24.6557 25.0294 24.7673 24.9551 24.8612 24.8612C24.9551 24.7673 25.0294 24.6557 25.0796 24.5328C25.1299 24.4099 25.1552 24.2782 25.1541 24.1454C25.1529 24.0126 25.1253 23.8814 25.0729 23.7594C25.0205 23.6374 24.9443 23.5271 24.8488 23.4348L21.3138 19.8988V19.8998Z" fill="#051923"/>
</svg>
