<svg width="121" height="107" viewBox="0 0 121 107" fill="none" xmlns="http://www.w3.org/2000/svg">
<path d="M96.3951 20.9152V14.0316L40.3244 14.0265C39.9183 14.0265 39.5889 13.6881 39.5889 13.2709L39.448 10.1598C39.2101 6.49299 36.7001 4 33.3018 4H10.153C6.75469 4 4 6.7549 4 10.153V94.1267" stroke="black" stroke-width="8" stroke-miterlimit="10" stroke-linecap="round" stroke-linejoin="round"/>
<path d="M14.3928 93.2398C13.1833 97.2474 9.83489 101.729 6.40234 102.252L96.4714 102.274C99.8697 102.274 101.237 101.374 102.624 96.121C104.012 90.868 116.981 31.1916 116.981 31.1916C116.981 30.0589 116.063 29.1406 114.93 29.1406H30.6732C29.5405 29.1406 28.6222 30.0589 28.6222 31.1916C28.6222 31.1916 15.6023 89.2319 14.3928 93.2398Z" fill="#00A7FF" stroke="black" stroke-width="8" stroke-miterlimit="10" stroke-linecap="round" stroke-linejoin="round"/>
</svg>
