<svg width="134" height="133" viewBox="0 0 134 133" fill="none" xmlns="http://www.w3.org/2000/svg">
<path d="M110.448 60.5063C121.863 43.0985 116.614 19.9821 98.7238 8.8746C80.8333 -2.23291 57.076 2.87436 45.6605 20.2824C34.245 37.6902 39.4941 60.8063 57.3845 71.9138C75.275 83.0213 99.0323 77.9141 110.448 60.5063Z" fill="#0A9FDB" stroke="black" stroke-width="6" stroke-miterlimit="10" stroke-linecap="round" stroke-linejoin="round"/>
<path d="M102.766 55.7355C111.474 42.4564 107.47 24.8225 93.823 16.3495C80.1756 7.87645 62.053 11.7726 53.3449 25.0518C44.6367 38.3309 48.6408 55.9645 62.2881 64.4378C75.9354 72.9108 94.0581 69.0146 102.766 55.7355Z" fill="white" stroke="black" stroke-width="6" stroke-miterlimit="10" stroke-linecap="round" stroke-linejoin="round"/>
<path d="M32.157 47.0774H13C7.47715 47.0774 3 51.5545 3 57.0774V129.247H11.3307M61.3139 93.4635V129.247H37.7106L61.3139 93.4635Z" stroke="black" stroke-width="6" stroke-linecap="round" stroke-linejoin="round"/>
<path d="M66.6152 60.3303V36.4746H87.8203V60.3303" stroke="black" stroke-width="6" stroke-linecap="round" stroke-linejoin="round"/>
<path d="M95.7734 27.1976V55.0293" stroke="black" stroke-width="6" stroke-linecap="round"/>
<path d="M69.2666 84.1857V129.246H82.5198V84.1857" stroke="black" stroke-width="6" stroke-linecap="round" stroke-linejoin="round"/>
<path d="M90.4707 83.2663V129.247H111.676V70.9326" stroke="black" stroke-width="6" stroke-linecap="round" stroke-linejoin="round"/>
<path d="M122.28 55.0293V55.0293C126.671 55.0293 130.231 58.5895 130.231 62.9812V129.247H119.629V92.1382V62.9812" stroke="black" stroke-width="6" stroke-linecap="round" stroke-linejoin="round"/>
<path d="M44.8197 77.4106L56.386 84.5912L28.8314 126.612C26.8628 129.614 22.6777 130.44 19.4839 128.457C16.2899 126.474 15.2965 122.433 17.2651 119.431L44.8197 77.4106Z" fill="#0A9FDB" stroke="black" stroke-width="6" stroke-miterlimit="10" stroke-linecap="round" stroke-linejoin="round"/>
<path d="M58.6631 31.1731V52.3782" stroke="black" stroke-width="6" stroke-linecap="round"/>
</svg>
