<svg width="144" height="140" viewBox="0 0 144 140" fill="none" xmlns="http://www.w3.org/2000/svg">
<path d="M63.6339 100.837L70.177 107.38L60.6777 110.888L63.6339 100.837Z" fill="black"/>
<path d="M20.4521 25.9366H94.4871" stroke="#0A9FDB" stroke-width="7" stroke-miterlimit="10" stroke-linecap="round" stroke-linejoin="round"/>
<path d="M20.4521 47.8721H90.6482" stroke="#0A9FDB" stroke-width="7" stroke-miterlimit="10" stroke-linecap="round" stroke-linejoin="round"/>
<path d="M20.4521 69.8088H67.3675" stroke="#0A9FDB" stroke-width="7" stroke-miterlimit="10" stroke-linecap="round" stroke-linejoin="round"/>
<path d="M20.4521 91.7455H53.9239" stroke="#0A9FDB" stroke-width="7" stroke-miterlimit="10" stroke-linecap="round" stroke-linejoin="round"/>
<path d="M20.4521 113.681H48.2728" stroke="#0A9FDB" stroke-width="7" stroke-miterlimit="10" stroke-linecap="round" stroke-linejoin="round"/>
<path d="M63.6339 100.837L70.177 107.38L60.6777 110.888L63.6339 100.837Z" fill="black"/>
<path d="M70.8262 107.419L86.3579 102.025L129.106 59.277L111.409 41.5796L68.6603 84.3282L63.248 99.8782L70.8262 107.419Z" stroke="black" stroke-width="7" stroke-miterlimit="10" stroke-linecap="round" stroke-linejoin="round"/>
<path d="M118.518 34.4672L122.783 30.2023L140.48 47.8996L136.006 52.3741" stroke="black" stroke-width="7" stroke-miterlimit="10" stroke-linecap="round" stroke-linejoin="round"/>
<path d="M69.6924 83.2941L87.3897 100.991" stroke="black" stroke-width="7" stroke-miterlimit="10" stroke-linecap="round" stroke-linejoin="round"/>
<path d="M63.2581 99.8414L59.4658 111.218L70.8677 107.401" stroke="black" stroke-width="7" stroke-miterlimit="10" stroke-linecap="round" stroke-linejoin="round"/>
<path d="M99.918 54.1304L116.924 71.1362" stroke="black" stroke-width="7" stroke-miterlimit="10" stroke-linecap="round" stroke-linejoin="round"/>
<path d="M110.939 92.713V125.618C110.939 131.141 106.462 135.618 100.939 135.618H14C8.47714 135.618 4 131.14 4 125.618V14C4 8.47715 8.47715 4 14 4H100.939C106.462 4 110.939 8.47715 110.939 14V27.1864" stroke="black" stroke-width="8" stroke-miterlimit="10" stroke-linecap="round" stroke-linejoin="round"/>
</svg>
