<svg width="24" height="24" viewBox="0 0 24 24" fill="none" xmlns="http://www.w3.org/2000/svg">
<path d="M6.35872 7.80803L7.95272 7.32003C8.07833 7.28162 8.21028 7.26832 8.34103 7.2809C8.47177 7.29348 8.59876 7.33169 8.71474 7.39335C8.83072 7.45501 8.93342 7.53891 9.01698 7.64026C9.10054 7.74161 9.16331 7.85842 9.20172 7.98403C9.24014 8.10964 9.25343 8.24158 9.24085 8.37233C9.22827 8.50308 9.19006 8.63007 9.1284 8.74605C9.06674 8.86203 8.98284 8.96473 8.8815 9.04829C8.78015 9.13184 8.66333 9.19462 8.53772 9.23303L4.71272 10.403C4.58705 10.4415 4.45504 10.4547 4.32423 10.4421C4.19342 10.4295 4.06639 10.3912 3.95039 10.3294C3.83439 10.2676 3.7317 10.1836 3.6482 10.0822C3.56469 9.98068 3.50201 9.86375 3.46372 9.73803L2.29372 5.91303C2.25531 5.78742 2.24202 5.65547 2.2546 5.52473C2.26718 5.39398 2.30539 5.26699 2.36705 5.15101C2.42871 5.03503 2.5126 4.93233 2.61395 4.84877C2.7153 4.76522 2.83211 4.70244 2.95772 4.66403C3.2114 4.58645 3.48551 4.61283 3.71974 4.73735C3.95398 4.86188 4.12915 5.07435 4.20672 5.32803L4.64672 6.76903C7.05472 3.06003 11.8317 1.46503 16.0727 3.20303C17.341 3.72289 18.48 4.51437 19.4095 5.52179C20.339 6.5292 21.0364 7.72807 21.4527 9.03403C21.4954 9.15983 21.5126 9.29288 21.5033 9.4254C21.494 9.55792 21.4583 9.68725 21.3985 9.80585C21.3386 9.92444 21.2557 10.0299 21.1546 10.1161C21.0536 10.2023 20.9363 10.2675 20.8098 10.3079C20.6832 10.3483 20.5499 10.3631 20.4176 10.3514C20.2852 10.3397 20.1566 10.3017 20.0391 10.2397C19.9216 10.1777 19.8176 10.0929 19.7332 9.99032C19.6489 9.8877 19.5858 9.7693 19.5477 9.64203C19.1253 8.3154 18.3362 7.13531 17.2716 6.23803C16.207 5.34074 14.9104 4.76285 13.5314 4.57108C12.1524 4.37931 10.7473 4.58147 9.47827 5.15424C8.20927 5.72701 7.12814 6.64701 6.35972 7.80803H6.35872ZM18.6857 16.003L16.9107 16.446C16.7822 16.4813 16.6479 16.4905 16.5158 16.4731C16.3837 16.4557 16.2563 16.4121 16.1413 16.3448C16.0263 16.2775 15.9259 16.1879 15.8459 16.0812C15.766 15.9746 15.7083 15.853 15.676 15.7237C15.6437 15.5944 15.6377 15.4599 15.6581 15.3282C15.6785 15.1966 15.7251 15.0703 15.795 14.9568C15.865 14.8434 15.9569 14.7451 16.0654 14.6677C16.1738 14.5902 16.2967 14.5353 16.4267 14.506L20.0697 13.597C20.2595 13.5067 20.473 13.4787 20.6797 13.517C20.8789 13.5432 21.0655 13.6288 21.2153 13.7626C21.3652 13.8963 21.4712 14.0721 21.5197 14.267L22.4877 18.147C22.5451 18.4019 22.5004 18.669 22.3633 18.8914C22.2263 19.1137 22.0076 19.2736 21.7542 19.3368C21.5007 19.4001 21.2326 19.3616 21.0072 19.2297C20.7817 19.0978 20.6168 18.8829 20.5477 18.631L20.2177 17.309C19.2549 18.6946 17.9362 19.7948 16.4005 20.4939C14.8649 21.1929 13.1691 21.4648 11.4919 21.2809C9.81468 21.097 8.21809 20.4642 6.87033 19.4492C5.52257 18.4341 4.47353 17.0743 3.83372 15.513L3.57372 14.879C3.52395 14.7575 3.49861 14.6273 3.49914 14.496C3.49967 14.3647 3.52606 14.2347 3.5768 14.1136C3.62755 13.9925 3.70166 13.8825 3.7949 13.79C3.88814 13.6975 3.99869 13.6243 4.12022 13.5745C4.36568 13.474 4.64102 13.4751 4.88566 13.5776C5.00679 13.6284 5.11674 13.7025 5.20924 13.7957C5.30173 13.8889 5.37495 13.9995 5.42472 14.121L5.68472 14.754C6.19447 15.9979 7.03422 17.0789 8.11334 17.8804C9.19246 18.6819 10.47 19.1735 11.808 19.3022C13.1461 19.4308 14.4939 19.1916 15.7059 18.6104C16.918 18.0291 17.9483 17.1279 18.6857 16.004V16.003Z" fill="white"/>
</svg>
