<svg width="41" height="35" viewBox="0 0 41 35" fill="none" xmlns="http://www.w3.org/2000/svg">
<path d="M33.6827 6.98336V4.54846L13.8489 4.54665C13.7053 4.54665 13.5888 4.42694 13.5888 4.27937L13.5389 3.17887C13.4548 1.88184 12.5669 1 11.3648 1H3.17648C1.97441 1 1 1.97448 1 3.17648V32.8803" stroke="white" stroke-width="1.5" stroke-miterlimit="10" stroke-linecap="round" stroke-linejoin="round"/>
<path d="M3.82645 30.8045C3.39863 32.2221 2.21419 33.8072 1 33.9923L32.8599 34.0001C34.062 34.0001 34.5454 33.6818 35.0364 31.8237C35.5273 29.9655 40.1148 8.85635 40.1148 8.85635C40.1148 8.45566 39.79 8.13086 39.3893 8.13086H9.58527C9.18458 8.13086 8.85978 8.45566 8.85978 8.85635C8.85978 8.85635 4.25427 29.3868 3.82645 30.8045Z" stroke="white" stroke-width="1.5" stroke-miterlimit="10" stroke-linecap="round" stroke-linejoin="round"/>
</svg>
