<svg
    xmlns="http://www.w3.org/2000/svg"
    xmlns:xlink="http://www.w3.org/1999/xlink"
    version="1.1"
    x="0px"
    y="0px"
    viewBox="0 0 60.167 60.167"
    style="enable-background:new 0 0 60.167 60.167;"
    xml:space="preserve"
>
    <path
        d="M54.5,11.667H39.88V3.91c0-2.156-1.754-3.91-3.91-3.91H24.196c-2.156,0-3.91,1.754-3.91,3.91v7.756H5.667  c-0.552,0-1,0.448-1,1s0.448,1,1,1h2.042v40.5c0,3.309,2.691,6,6,6h32.75c3.309,0,6-2.691,6-6v-40.5H54.5c0.552,0,1-0.448,1-1  S55.052,11.667,54.5,11.667z M22.286,3.91c0-1.053,0.857-1.91,1.91-1.91H35.97c1.053,0,1.91,0.857,1.91,1.91v7.756H22.286V3.91z   M50.458,54.167c0,2.206-1.794,4-4,4h-32.75c-2.206,0-4-1.794-4-4v-40.5h40.75V54.167z M38.255,46.153V22.847c0-0.552,0.448-1,1-1  s1,0.448,1,1v23.306c0,0.552-0.448,1-1,1S38.255,46.706,38.255,46.153z M29.083,46.153V22.847c0-0.552,0.448-1,1-1s1,0.448,1,1  v23.306c0,0.552-0.448,1-1,1S29.083,46.706,29.083,46.153z M19.911,46.153V22.847c0-0.552,0.448-1,1-1s1,0.448,1,1v23.306  c0,0.552-0.448,1-1,1S19.911,46.706,19.911,46.153z"
    ></path>
</svg>