<svg width="40" height="40" viewBox="0 0 40 40" fill="none" xmlns="http://www.w3.org/2000/svg">
<rect width="40" height="40" fill="#F8F8F8"/>
<path d="M16 13H24C24.7956 13 25.5587 13.3161 26.1213 13.8787C26.6839 14.4413 27 15.2044 27 16V24C27 24.7956 26.6839 25.5587 26.1213 26.1213C25.5587 26.6839 24.7956 27 24 27H16C15.2044 27 14.4413 26.6839 13.8787 26.1213C13.3161 25.5587 13 24.7956 13 24V16C13 15.2044 13.3161 14.4413 13.8787 13.8787C14.4413 13.3161 15.2044 13 16 13ZM16 15C15.7348 15 15.4804 15.1054 15.2929 15.2929C15.1054 15.4804 15 15.7348 15 16V24C15 24.2652 15.1054 24.5196 15.2929 24.7071C15.4804 24.8946 15.7348 25 16 25H24C24.2652 25 24.5196 24.8946 24.7071 24.7071C24.8946 24.5196 25 24.2652 25 24V16C25 15.7348 24.8946 15.4804 24.7071 15.2929C24.5196 15.1054 24.2652 15 24 15H16ZM18 17H22C22.2652 17 22.5196 17.1054 22.7071 17.2929C22.8946 17.4804 23 17.7348 23 18V22C23 22.2652 22.8946 22.5196 22.7071 22.7071C22.5196 22.8946 22.2652 23 22 23H18C17.7348 23 17.4804 22.8946 17.2929 22.7071C17.1054 22.5196 17 22.2652 17 22V18C17 17.7348 17.1054 17.4804 17.2929 17.2929C17.4804 17.1054 17.7348 17 18 17ZM19 19V21H21V19H19ZM16 10C16.2652 10 16.5196 10.1054 16.7071 10.2929C16.8946 10.4804 17 10.7348 17 11V13C17 13.2652 16.8946 13.5196 16.7071 13.7071C16.5196 13.8946 16.2652 14 16 14C15.7348 14 15.4804 13.8946 15.2929 13.7071C15.1054 13.5196 15 13.2652 15 13V11C15 10.7348 15.1054 10.4804 15.2929 10.2929C15.4804 10.1054 15.7348 10 16 10V10ZM11 15H13C13.2652 15 13.5196 15.1054 13.7071 15.2929C13.8946 15.4804 14 15.7348 14 16C14 16.2652 13.8946 16.5196 13.7071 16.7071C13.5196 16.8946 13.2652 17 13 17H11C10.7348 17 10.4804 16.8946 10.2929 16.7071C10.1054 16.5196 10 16.2652 10 16C10 15.7348 10.1054 15.4804 10.2929 15.2929C10.4804 15.1054 10.7348 15 11 15ZM27 15H29C29.2652 15 29.5196 15.1054 29.7071 15.2929C29.8946 15.4804 30 15.7348 30 16C30 16.2652 29.8946 16.5196 29.7071 16.7071C29.5196 16.8946 29.2652 17 29 17H27C26.7348 17 26.4804 16.8946 26.2929 16.7071C26.1054 16.5196 26 16.2652 26 16C26 15.7348 26.1054 15.4804 26.2929 15.2929C26.4804 15.1054 26.7348 15 27 15ZM11 19H13C13.2652 19 13.5196 19.1054 13.7071 19.2929C13.8946 19.4804 14 19.7348 14 20C14 20.2652 13.8946 20.5196 13.7071 20.7071C13.5196 20.8946 13.2652 21 13 21H11C10.7348 21 10.4804 20.8946 10.2929 20.7071C10.1054 20.5196 10 20.2652 10 20C10 19.7348 10.1054 19.4804 10.2929 19.2929C10.4804 19.1054 10.7348 19 11 19ZM27 19H29C29.2652 19 29.5196 19.1054 29.7071 19.2929C29.8946 19.4804 30 19.7348 30 20C30 20.2652 29.8946 20.5196 29.7071 20.7071C29.5196 20.8946 29.2652 21 29 21H27C26.7348 21 26.4804 20.8946 26.2929 20.7071C26.1054 20.5196 26 20.2652 26 20C26 19.7348 26.1054 19.4804 26.2929 19.2929C26.4804 19.1054 26.7348 19 27 19ZM11 23H13C13.2652 23 13.5196 23.1054 13.7071 23.2929C13.8946 23.4804 14 23.7348 14 24C14 24.2652 13.8946 24.5196 13.7071 24.7071C13.5196 24.8946 13.2652 25 13 25H11C10.7348 25 10.4804 24.8946 10.2929 24.7071C10.1054 24.5196 10 24.2652 10 24C10 23.7348 10.1054 23.4804 10.2929 23.2929C10.4804 23.1054 10.7348 23 11 23ZM27 23H29C29.2652 23 29.5196 23.1054 29.7071 23.2929C29.8946 23.4804 30 23.7348 30 24C30 24.2652 29.8946 24.5196 29.7071 24.7071C29.5196 24.8946 29.2652 25 29 25H27C26.7348 25 26.4804 24.8946 26.2929 24.7071C26.1054 24.5196 26 24.2652 26 24C26 23.7348 26.1054 23.4804 26.2929 23.2929C26.4804 23.1054 26.7348 23 27 23ZM16 26C16.2652 26 16.5196 26.1054 16.7071 26.2929C16.8946 26.4804 17 26.7348 17 27V29C17 29.2652 16.8946 29.5196 16.7071 29.7071C16.5196 29.8946 16.2652 30 16 30C15.7348 30 15.4804 29.8946 15.2929 29.7071C15.1054 29.5196 15 29.2652 15 29V27C15 26.7348 15.1054 26.4804 15.2929 26.2929C15.4804 26.1054 15.7348 26 16 26ZM24 10C24.2652 10 24.5196 10.1054 24.7071 10.2929C24.8946 10.4804 25 10.7348 25 11V13C25 13.2652 24.8946 13.5196 24.7071 13.7071C24.5196 13.8946 24.2652 14 24 14C23.7348 14 23.4804 13.8946 23.2929 13.7071C23.1054 13.5196 23 13.2652 23 13V11C23 10.7348 23.1054 10.4804 23.2929 10.2929C23.4804 10.1054 23.7348 10 24 10V10ZM24 26C24.2652 26 24.5196 26.1054 24.7071 26.2929C24.8946 26.4804 25 26.7348 25 27V29C25 29.2652 24.8946 29.5196 24.7071 29.7071C24.5196 29.8946 24.2652 30 24 30C23.7348 30 23.4804 29.8946 23.2929 29.7071C23.1054 29.5196 23 29.2652 23 29V27C23 26.7348 23.1054 26.4804 23.2929 26.2929C23.4804 26.1054 23.7348 26 24 26ZM20 10C20.2652 10 20.5196 10.1054 20.7071 10.2929C20.8946 10.4804 21 10.7348 21 11V13C21 13.2652 20.8946 13.5196 20.7071 13.7071C20.5196 13.8946 20.2652 14 20 14C19.7348 14 19.4804 13.8946 19.2929 13.7071C19.1054 13.5196 19 13.2652 19 13V11C19 10.7348 19.1054 10.4804 19.2929 10.2929C19.4804 10.1054 19.7348 10 20 10V10ZM20 26C20.2652 26 20.5196 26.1054 20.7071 26.2929C20.8946 26.4804 21 26.7348 21 27V29C21 29.2652 20.8946 29.5196 20.7071 29.7071C20.5196 29.8946 20.2652 30 20 30C19.7348 30 19.4804 29.8946 19.2929 29.7071C19.1054 29.5196 19 29.2652 19 29V27C19 26.7348 19.1054 26.4804 19.2929 26.2929C19.4804 26.1054 19.7348 26 20 26Z" fill="#00A7FF"/>
</svg>
