<svg width="72" height="81" viewBox="0 0 72 81" fill="none" xmlns="http://www.w3.org/2000/svg">
<path fill-rule="evenodd" clip-rule="evenodd" d="M47.6979 35.7817L53.3585 41.4624V51.8514H47.6979V35.7817ZM44.4967 24.3465H30.7162V50.8655L36.3768 56.5462V64.5743L25.049 53.2196V21.0467L10.3997 6.3989C11.8924 5.16834 13.5097 4.09832 15.2249 3.20643L30.7096 18.6993H30.7162V0.000541304C33.1278 -0.0254869 35.4555 0.888036 37.2097 2.54898C38.9639 4.20992 40.0079 6.48884 40.1222 8.90643C40.2364 11.324 39.412 13.6919 37.8224 15.512C36.2327 17.3321 34.0016 18.4626 31.5984 18.6658H38.8362L38.8629 18.6926L44.4967 24.3465ZM36.3492 51.8112L36.3759 24.3801L42.0298 30.0944L42.0031 51.8112H36.3492ZM50.1364 30.1011L55.7902 35.7751H47.6903L42.0365 30.1011H50.1364ZM19.4009 23.4411V47.8743L0 28.0756C0.0267323 25.6343 0.360885 23.2601 0.962361 21.0066L13.7404 33.8301V25.7953L3.20787 15.2252C4.10304 13.5104 5.17124 11.8922 6.39569 10.3963L19.4009 23.4411ZM0.100246 44.2324V36.2043L36.3759 72.6025V80.6306L0.100246 44.2324ZM59.0115 44.6751H64.6787L71.9967 51.8515C72.03 53.1007 71.8136 54.3441 71.3602 55.5081C70.9069 56.672 70.2257 57.7331 69.3571 58.6285C68.4884 59.524 67.4497 60.2357 66.3024 60.7217C65.1551 61.2076 63.9224 61.458 62.6771 61.458C61.4318 61.458 60.1991 61.2076 59.0518 60.7217C57.9045 60.2357 56.8659 59.524 55.9972 58.6285C55.1285 57.7331 54.4474 56.672 53.994 55.5081C53.5406 54.3441 53.3243 53.1007 53.3576 51.8515H59.0115V44.6751Z" fill="white"/>
</svg>
