<svg width="40" height="40" viewBox="0 0 40 40" fill="none" xmlns="http://www.w3.org/2000/svg">
<rect width="40" height="40" fill="#F8F8F8"/>
<path d="M26 15V17C26 17.5523 25.5523 18 25 18C24.4477 18 24 17.5523 24 17V16H21V24H22C22.5523 24 23 24.4477 23 25C23 25.5523 22.5523 26 22 26H18C17.4477 26 17 25.5523 17 25C17 24.4477 17.4477 24 18 24H19V16H16V17C16 17.5523 15.5523 18 15 18C14.4477 18 14 17.5523 14 17V15C14 14.4477 14.4477 14 15 14H25C25.5523 14 26 14.4477 26 15Z" fill="#00A7FF"/>
</svg>
