<svg width="64" height="64" viewBox="0 0 64 64" fill="none" xmlns="http://www.w3.org/2000/svg">
<path d="M27.963 44.6132C27.6129 44.6139 27.2662 44.5455 26.9426 44.4119C26.6191 44.2783 26.3251 44.0821 26.0776 43.8345L14.7656 32.5199C14.5108 32.2741 14.3074 31.98 14.1674 31.6547C14.0274 31.3295 13.9536 30.9796 13.9503 30.6255C13.947 30.2715 14.0142 29.9203 14.1481 29.5925C14.2819 29.2646 14.4797 28.9668 14.7299 28.7162C14.9801 28.4657 15.2777 28.2674 15.6053 28.1331C15.933 27.9988 16.2841 27.9311 16.6381 27.9339C16.9922 27.9367 17.3422 28.0101 17.6676 28.1496C17.9931 28.2891 18.2875 28.492 18.5336 28.7465L27.9603 38.1732L44.9336 21.2052C45.4336 20.7048 46.112 20.4236 46.8194 20.4233C47.5267 20.4231 48.2052 20.7039 48.7056 21.2039C49.206 21.7039 49.4872 22.3822 49.4875 23.0896C49.4877 23.797 49.207 24.4755 48.707 24.9759L29.8483 43.8345C29.6008 44.0821 29.3068 44.2783 28.9833 44.4119C28.6597 44.5455 28.313 44.6139 27.963 44.6132Z" fill="white"/>
</svg>
