<svg width="16" height="16" viewBox="0 0 16 16" fill="none" xmlns="http://www.w3.org/2000/svg">
<path d="M1.71429 6.85714H5.14286C5.59751 6.85714 6.03355 6.67653 6.35504 6.35504C6.67653 6.03355 6.85714 5.59751 6.85714 5.14286V1.71429C6.85714 1.25963 6.67653 0.823593 6.35504 0.502102C6.03355 0.180612 5.59751 0 5.14286 0H1.71429C1.25963 0 0.823593 0.180612 0.502102 0.502102C0.180612 0.823593 0 1.25963 0 1.71429V5.14286C0 5.59751 0.180612 6.03355 0.502102 6.35504C0.823593 6.67653 1.25963 6.85714 1.71429 6.85714ZM2.28571 2.28571H4.57143V4.57143H2.28571V2.28571Z" fill="black"/>
<path d="M0 14.2859C0 14.7406 0.180612 15.1766 0.502102 15.4981C0.823593 15.8196 1.25963 16.0002 1.71429 16.0002H5.14286C5.59751 16.0002 6.03355 15.8196 6.35504 15.4981C6.67653 15.1766 6.85714 14.7406 6.85714 14.2859V10.8574C6.85714 10.4027 6.67653 9.96666 6.35504 9.64517C6.03355 9.32368 5.59751 9.14307 5.14286 9.14307H1.71429C1.25963 9.14307 0.823593 9.32368 0.502102 9.64517C0.180612 9.96666 0 10.4027 0 10.8574V14.2859ZM2.28571 11.4288H4.57143V13.7145H2.28571V11.4288Z" fill="black"/>
<path d="M14.2854 6.85714C14.7401 6.85714 15.1761 6.67653 15.4976 6.35504C15.8191 6.03355 15.9997 5.59751 15.9997 5.14286V1.71429C15.9997 1.25963 15.8191 0.823593 15.4976 0.502102C15.1761 0.180612 14.7401 0 14.2854 0H10.8569C10.4022 0 9.96617 0.180612 9.64468 0.502102C9.32319 0.823593 9.14258 1.25963 9.14258 1.71429V5.14286C9.14258 5.59751 9.32319 6.03355 9.64468 6.35504C9.96617 6.67653 10.4022 6.85714 10.8569 6.85714H14.2854ZM11.4283 2.28571H13.714V4.57143H11.4283V2.28571Z" fill="black"/>
<path d="M13.7144 11.4287H11.4287V13.7144H13.7144V11.4287Z" fill="black"/>
<path d="M15.9996 9.14307H13.7139V11.4288H15.9996V9.14307Z" fill="black"/>
<path d="M11.4283 9.14307H9.14258V11.4288H11.4283V9.14307Z" fill="black"/>
<path d="M15.9996 13.7144H13.7139V16.0001H15.9996V13.7144Z" fill="black"/>
<path d="M11.4283 13.7144H9.14258V16.0001H11.4283V13.7144Z" fill="black"/>
</svg>
