<svg width="40" height="46" viewBox="0 0 40 46" fill="none" xmlns="http://www.w3.org/2000/svg">
<path fill-rule="evenodd" clip-rule="evenodd" d="M26.4987 20.2381L29.6434 23.3941V29.1657H26.4987V20.2381ZM24.7202 13.8852H17.0644V28.618L20.2091 31.7739V36.234L13.9159 29.9258V12.052L5.77743 3.91432C6.60672 3.23067 7.50519 2.63622 8.45808 2.14072L17.0607 10.7479H17.0644V0.359676C18.4042 0.345216 19.6973 0.852728 20.6719 1.77547C21.6464 2.69822 22.2264 3.96429 22.2899 5.30739C22.3534 6.6505 21.8954 7.96597 21.0122 8.97715C20.1291 9.98832 18.8896 10.6164 17.5545 10.7292H21.5755L21.5903 10.7442L24.7202 13.8852ZM20.194 29.1438L20.2088 13.9043L23.3499 17.0789L23.335 29.1438H20.194ZM27.8535 17.0826L30.9946 20.2349H26.4946L23.3536 17.0826H27.8535ZM10.7783 13.3827V26.9566L0 15.9574C0.0148513 14.6011 0.200492 13.2821 0.534645 12.0301L7.63354 19.1543V14.6905L1.78215 8.81828C2.27946 7.86557 2.87291 6.96661 3.55316 6.13553L10.7783 13.3827ZM0.0556922 24.9334V20.4733L20.2088 40.6945V45.1546L0.0556922 24.9334ZM32.7841 25.1793H35.9326L39.9981 29.1662C40.0167 29.8602 39.8964 30.551 39.6446 31.1976C39.3927 31.8443 39.0143 32.4337 38.5317 32.9312C38.0491 33.4287 37.472 33.8241 36.8347 34.0941C36.1973 34.3641 35.5125 34.5032 34.8206 34.5032C34.1288 34.5032 33.444 34.3641 32.8066 34.0941C32.1692 33.8241 31.5922 33.4287 31.1095 32.9312C30.6269 32.4337 30.2485 31.8443 29.9967 31.1976C29.7448 30.551 29.6246 29.8602 29.6431 29.1662H32.7841V25.1793Z" fill="white"/>
</svg>
