<svg width="40" height="40" viewBox="0 0 40 40" fill="none" xmlns="http://www.w3.org/2000/svg">
<rect width="40" height="40" fill="#F8F8F8"/>
<path d="M18.4862 24.7299C18.355 24.7302 18.2249 24.7045 18.1036 24.6544C17.9823 24.6043 17.8721 24.5307 17.7792 24.4379L13.5372 20.1949C13.4417 20.1027 13.3654 19.9924 13.3129 19.8705C13.2604 19.7485 13.2327 19.6173 13.2315 19.4845C13.2302 19.3517 13.2555 19.22 13.3056 19.0971C13.3558 18.9742 13.43 18.8625 13.5238 18.7685C13.6177 18.6746 13.7293 18.6002 13.8521 18.5499C13.975 18.4995 14.1066 18.4741 14.2394 18.4752C14.3722 18.4762 14.5034 18.5037 14.6255 18.556C14.7475 18.6083 14.8579 18.6845 14.9502 18.7799L18.4852 22.3149L24.8502 15.9519C25.0377 15.7643 25.2921 15.6588 25.5574 15.6587C25.8226 15.6586 26.0771 15.7639 26.2647 15.9514C26.4524 16.1389 26.5578 16.3933 26.5579 16.6585C26.558 16.9238 26.4527 17.1783 26.2652 17.3659L19.1932 24.4379C19.1004 24.5307 18.9902 24.6043 18.8688 24.6544C18.7475 24.7045 18.6175 24.7302 18.4862 24.7299Z" fill="#051923"/>
</svg>
