<svg width="411" height="81" viewBox="0 0 411 81" fill="none" xmlns="http://www.w3.org/2000/svg">
<path d="M161.32 31.3169C162.515 31.3169 163.484 30.3505 163.484 29.1584C163.484 27.9664 162.515 27 161.32 27C160.125 27 159.156 27.9664 159.156 29.1584C159.156 30.3505 160.125 31.3169 161.32 31.3169Z" fill="white"/>
<path d="M163.755 61.8052C164.95 61.8052 165.919 60.8388 165.919 59.6467C165.919 58.4546 164.95 57.4883 163.755 57.4883C162.56 57.4883 161.591 58.4546 161.591 59.6467C161.591 60.8388 162.56 61.8052 163.755 61.8052Z" fill="white"/>
<path d="M161.939 36.7129C162.942 36.7129 163.756 35.9019 163.756 34.9014C163.756 33.9009 162.942 33.0898 161.939 33.0898C160.936 33.0898 160.123 33.9009 160.123 34.9014C160.123 35.9019 160.936 36.7129 161.939 36.7129Z" fill="white"/>
<path d="M166.769 37.4068C167.772 37.4068 168.586 36.5957 168.586 35.5952C168.586 34.5948 167.772 33.7837 166.769 33.7837C165.766 33.7837 164.953 34.5948 164.953 35.5952C164.953 36.5957 165.766 37.4068 166.769 37.4068Z" fill="white"/>
<path d="M161.321 41.2998C162.175 41.2998 162.867 40.6095 162.867 39.7581C162.867 38.9066 162.175 38.2163 161.321 38.2163C160.467 38.2163 159.775 38.9066 159.775 39.7581C159.775 40.6095 160.467 41.2998 161.321 41.2998Z" fill="white"/>
<path d="M166.151 41.9551C167.005 41.9551 167.697 41.2648 167.697 40.4133C167.697 39.5618 167.005 38.8716 166.151 38.8716C165.298 38.8716 164.605 39.5618 164.605 40.4133C164.605 41.2648 165.298 41.9551 166.151 41.9551Z" fill="white"/>
<path d="M170.015 43.4585C170.869 43.4585 171.561 42.7682 171.561 41.9167C171.561 41.0653 170.869 40.375 170.015 40.375C169.162 40.375 168.47 41.0653 168.47 41.9167C168.47 42.7682 169.162 43.4585 170.015 43.4585Z" fill="white"/>
<path d="M164.722 45.6551C165.469 45.6551 166.074 45.0511 166.074 44.3061C166.074 43.561 165.469 42.957 164.722 42.957C163.975 42.957 163.369 43.561 163.369 44.3061C163.369 45.0511 163.975 45.6551 164.722 45.6551Z" fill="white"/>
<path d="M159.891 44.9998C160.638 44.9998 161.243 44.3958 161.243 43.6508C161.243 42.9057 160.638 42.3018 159.891 42.3018C159.144 42.3018 158.538 42.9057 158.538 43.6508C158.538 44.3958 159.144 44.9998 159.891 44.9998Z" fill="white"/>
<path d="M168.624 47.1585C169.371 47.1585 169.977 46.5545 169.977 45.8095C169.977 45.0644 169.371 44.4604 168.624 44.4604C167.877 44.4604 167.271 45.0644 167.271 45.8095C167.271 46.5545 167.877 47.1585 168.624 47.1585Z" fill="white"/>
<path d="M162.789 48.4689C163.429 48.4689 163.948 47.9512 163.948 47.3126C163.948 46.6739 163.429 46.1562 162.789 46.1562C162.149 46.1562 161.63 46.6739 161.63 47.3126C161.63 47.9512 162.149 48.4689 162.789 48.4689Z" fill="white"/>
<path d="M166.692 49.9337C167.333 49.9337 167.852 49.416 167.852 48.7774C167.852 48.1388 167.333 47.6211 166.692 47.6211C166.052 47.6211 165.533 48.1388 165.533 48.7774C165.533 49.416 166.052 49.9337 166.692 49.9337Z" fill="white"/>
<path d="M157.997 47.7745C158.637 47.7745 159.156 47.2568 159.156 46.6182C159.156 45.9796 158.637 45.4619 157.997 45.4619C157.357 45.4619 156.838 45.9796 156.838 46.6182C156.838 47.2568 157.357 47.7745 157.997 47.7745Z" fill="white"/>
<path d="M160.663 50.3579C161.197 50.3579 161.629 49.9264 161.629 49.3943C161.629 48.8621 161.197 48.4307 160.663 48.4307C160.13 48.4307 159.697 48.8621 159.697 49.3943C159.697 49.9264 160.13 50.3579 160.663 50.3579Z" fill="white"/>
<path d="M162.326 53.0172C162.795 53.0172 163.176 52.6376 163.176 52.1693C163.176 51.7009 162.795 51.3213 162.326 51.3213C161.856 51.3213 161.476 51.7009 161.476 52.1693C161.476 52.6376 161.856 53.0172 162.326 53.0172Z" fill="white"/>
<path d="M160.278 53.557C160.662 53.557 160.973 53.2464 160.973 52.8632C160.973 52.4801 160.662 52.1694 160.278 52.1694C159.893 52.1694 159.582 52.4801 159.582 52.8632C159.582 53.2464 159.893 53.557 160.278 53.557Z" fill="white"/>
<path d="M158.461 51.5524C158.93 51.5524 159.311 51.1727 159.311 50.7044C159.311 50.2361 158.93 49.8564 158.461 49.8564C157.991 49.8564 157.61 50.2361 157.61 50.7044C157.61 51.1727 157.991 51.5524 158.461 51.5524Z" fill="white"/>
<path d="M155.833 49.7026C156.367 49.7026 156.799 49.2712 156.799 48.739C156.799 48.2068 156.367 47.7754 155.833 47.7754C155.3 47.7754 154.867 48.2068 154.867 48.739C154.867 49.2712 155.3 49.7026 155.833 49.7026Z" fill="white"/>
<path d="M155.794 42.4555C156.328 42.4555 156.76 42.0241 156.76 41.4919C156.76 40.9597 156.328 40.5283 155.794 40.5283C155.261 40.5283 154.828 40.9597 154.828 41.4919C154.828 42.0241 155.261 42.4555 155.794 42.4555Z" fill="white"/>
<path d="M156.219 39.0641C156.689 39.0641 157.069 38.6844 157.069 38.2161C157.069 37.7478 156.689 37.3682 156.219 37.3682C155.75 37.3682 155.369 37.7478 155.369 38.2161C155.369 38.6844 155.75 39.0641 156.219 39.0641Z" fill="white"/>
<path d="M157.148 36.2889C157.532 36.2889 157.843 35.9783 157.843 35.5952C157.843 35.212 157.532 34.9014 157.148 34.9014C156.764 34.9014 156.452 35.212 156.452 35.5952C156.452 35.9783 156.764 36.2889 157.148 36.2889Z" fill="white"/>
<path d="M155.524 34.9786C155.994 34.9786 156.374 34.599 156.374 34.1307C156.374 33.6624 155.994 33.2827 155.524 33.2827C155.054 33.2827 154.674 33.6624 154.674 34.1307C154.674 34.599 155.054 34.9786 155.524 34.9786Z" fill="white"/>
<path d="M164.528 51.8217C165.061 51.8217 165.494 51.3903 165.494 50.8581C165.494 50.3259 165.061 49.8945 164.528 49.8945C163.994 49.8945 163.562 50.3259 163.562 50.8581C163.562 51.3903 163.994 51.8217 164.528 51.8217Z" fill="white"/>
<path d="M153.322 33.8608C153.855 33.8608 154.288 33.4294 154.288 32.8972C154.288 32.365 153.855 31.9336 153.322 31.9336C152.788 31.9336 152.355 32.365 152.355 32.8972C152.355 33.4294 152.788 33.8608 153.322 33.8608Z" fill="white"/>
<path d="M153.979 37.9467C154.512 37.9467 154.945 37.5153 154.945 36.9831C154.945 36.4509 154.512 36.0195 153.979 36.0195C153.445 36.0195 153.013 36.4509 153.013 36.9831C153.013 37.5153 153.445 37.9467 153.979 37.9467Z" fill="white"/>
<path d="M152.897 41.8395C153.537 41.8395 154.056 41.3218 154.056 40.6832C154.056 40.0446 153.537 39.5269 152.897 39.5269C152.256 39.5269 151.737 40.0446 151.737 40.6832C151.737 41.3218 152.256 41.8395 152.897 41.8395Z" fill="white"/>
<path d="M149.38 41.8392C150.127 41.8392 150.732 41.2352 150.732 40.4901C150.732 39.7451 150.127 39.1411 149.38 39.1411C148.633 39.1411 148.027 39.7451 148.027 40.4901C148.027 41.2352 148.633 41.8392 149.38 41.8392Z" fill="white"/>
<path d="M145.284 42.7646C146.138 42.7646 146.83 42.0744 146.83 41.2229C146.83 40.3714 146.138 39.6812 145.284 39.6812C144.43 39.6812 143.738 40.3714 143.738 41.2229C143.738 42.0744 144.43 42.7646 145.284 42.7646Z" fill="white"/>
<path d="M140.802 44.9615C141.805 44.9615 142.618 44.1504 142.618 43.1499C142.618 42.1494 141.805 41.3384 140.802 41.3384C139.799 41.3384 138.985 42.1494 138.985 43.1499C138.985 44.1504 139.799 44.9615 140.802 44.9615Z" fill="white"/>
<path d="M136.164 48.6616C137.359 48.6616 138.328 47.6953 138.328 46.5032C138.328 45.3111 137.359 44.3447 136.164 44.3447C134.969 44.3447 134 45.3111 134 46.5032C134 47.6953 134.969 48.6616 136.164 48.6616Z" fill="white"/>
<path d="M138.985 40.4517C139.988 40.4517 140.801 39.6407 140.801 38.6402C140.801 37.6397 139.988 36.8286 138.985 36.8286C137.982 36.8286 137.169 37.6397 137.169 38.6402C137.169 39.6407 137.982 40.4517 138.985 40.4517Z" fill="white"/>
<path d="M143.468 38.2549C144.321 38.2549 145.013 37.5646 145.013 36.7131C145.013 35.8617 144.321 35.1714 143.468 35.1714C142.614 35.1714 141.922 35.8617 141.922 36.7131C141.922 37.5646 142.614 38.2549 143.468 38.2549Z" fill="white"/>
<path d="M142.81 34.1689C143.664 34.1689 144.356 33.4787 144.356 32.6272C144.356 31.7757 143.664 31.0854 142.81 31.0854C141.957 31.0854 141.265 31.7757 141.265 32.6272C141.265 33.4787 141.957 34.1689 142.81 34.1689Z" fill="white"/>
<path d="M146.907 33.244C147.654 33.244 148.26 32.64 148.26 31.8949C148.26 31.1499 147.654 30.5459 146.907 30.5459C146.16 30.5459 145.555 31.1499 145.555 31.8949C145.555 32.64 146.16 33.244 146.907 33.244Z" fill="white"/>
<path d="M150.423 33.2443C151.063 33.2443 151.582 32.7266 151.582 32.088C151.582 31.4493 151.063 30.9316 150.423 30.9316C149.783 30.9316 149.264 31.4493 149.264 32.088C149.264 32.7266 149.783 33.2443 150.423 33.2443Z" fill="white"/>
<path d="M151.08 37.3292C151.72 37.3292 152.24 36.8115 152.24 36.1729C152.24 35.5343 151.72 35.0166 151.08 35.0166C150.44 35.0166 149.921 35.5343 149.921 36.1729C149.921 36.8115 150.44 37.3292 151.08 37.3292Z" fill="white"/>
<path d="M147.563 37.3685C148.31 37.3685 148.916 36.7645 148.916 36.0194C148.916 35.2744 148.31 34.6704 147.563 34.6704C146.816 34.6704 146.211 35.2744 146.211 36.0194C146.211 36.7645 146.816 37.3685 147.563 37.3685Z" fill="white"/>
<path d="M143.738 47.621C144.122 47.621 144.433 47.3104 144.433 46.9272C144.433 46.544 144.122 46.2334 143.738 46.2334C143.353 46.2334 143.042 46.544 143.042 46.9272C143.042 47.3104 143.353 47.621 143.738 47.621Z" fill="white"/>
<path d="M146.52 47.274C146.99 47.274 147.37 46.8944 147.37 46.4261C147.37 45.9578 146.99 45.5781 146.52 45.5781C146.051 45.5781 145.67 45.9578 145.67 46.4261C145.67 46.8944 146.051 47.274 146.52 47.274Z" fill="white"/>
<path d="M149.573 46.1181C150.106 46.1181 150.539 45.6867 150.539 45.1545C150.539 44.6223 150.106 44.1909 149.573 44.1909C149.039 44.1909 148.606 44.6223 148.606 45.1545C148.606 45.6867 149.039 46.1181 149.573 46.1181Z" fill="white"/>
<path d="M150.308 49.2013C150.948 49.2013 151.467 48.6836 151.467 48.045C151.467 47.4064 150.948 46.8887 150.308 46.8887C149.667 46.8887 149.148 47.4064 149.148 48.045C149.148 48.6836 149.667 49.2013 150.308 49.2013Z" fill="white"/>
<path d="M146.598 49.933C147.131 49.933 147.564 49.5016 147.564 48.9695C147.564 48.4373 147.131 48.0059 146.598 48.0059C146.064 48.0059 145.632 48.4373 145.632 48.9695C145.632 49.5016 146.064 49.933 146.598 49.933Z" fill="white"/>
<path d="M143.313 49.8947C143.783 49.8947 144.163 49.515 144.163 49.0467C144.163 48.5784 143.783 48.1987 143.313 48.1987C142.844 48.1987 142.463 48.5784 142.463 49.0467C142.463 49.515 142.844 49.8947 143.313 49.8947Z" fill="white"/>
<path d="M143.351 52.5546C143.884 52.5546 144.317 52.1232 144.317 51.591C144.317 51.0589 143.884 50.6274 143.351 50.6274C142.817 50.6274 142.385 51.0589 142.385 51.591C142.385 52.1232 142.817 52.5546 143.351 52.5546Z" fill="white"/>
<path d="M147.293 53.0553C147.933 53.0553 148.452 52.5376 148.452 51.899C148.452 51.2604 147.933 50.7427 147.293 50.7427C146.653 50.7427 146.134 51.2604 146.134 51.899C146.134 52.5376 146.653 53.0553 147.293 53.0553Z" fill="white"/>
<path d="M151.893 52.5545C152.64 52.5545 153.245 51.9505 153.245 51.2055C153.245 50.4604 152.64 49.8564 151.893 49.8564C151.146 49.8564 150.54 50.4604 150.54 51.2055C150.54 51.9505 151.146 52.5545 151.893 52.5545Z" fill="white"/>
<path d="M154.597 55.9077C155.45 55.9077 156.142 55.2175 156.142 54.366C156.142 53.5145 155.45 52.8242 154.597 52.8242C153.743 52.8242 153.051 53.5145 153.051 54.366C153.051 55.2175 153.743 55.9077 154.597 55.9077Z" fill="white"/>
<path d="M148.916 56.3704C149.663 56.3704 150.269 55.7664 150.269 55.0214C150.269 54.2763 149.663 53.6724 148.916 53.6724C148.169 53.6724 147.563 54.2763 147.563 55.0214C147.563 55.7664 148.169 56.3704 148.916 56.3704Z" fill="white"/>
<path d="M145.709 58.991C146.456 58.991 147.061 58.387 147.061 57.642C147.061 56.8969 146.456 56.293 145.709 56.293C144.962 56.293 144.356 56.8969 144.356 57.642C144.356 58.387 144.962 58.991 145.709 58.991Z" fill="white"/>
<path d="M148.375 62.3833C149.229 62.3833 149.921 61.693 149.921 60.8416C149.921 59.9901 149.229 59.2998 148.375 59.2998C147.521 59.2998 146.829 59.9901 146.829 60.8416C146.829 61.693 147.521 62.3833 148.375 62.3833Z" fill="white"/>
<path d="M155.485 63.0001C156.488 63.0001 157.301 62.189 157.301 61.1885C157.301 60.188 156.488 59.377 155.485 59.377C154.482 59.377 153.669 60.188 153.669 61.1885C153.669 62.189 154.482 63.0001 155.485 63.0001Z" fill="white"/>
<path d="M151.583 59.7617C152.437 59.7617 153.129 59.0714 153.129 58.22C153.129 57.3685 152.437 56.6782 151.583 56.6782C150.729 56.6782 150.037 57.3685 150.037 58.22C150.037 59.0714 150.729 59.7617 151.583 59.7617Z" fill="white"/>
<path d="M158.462 59.1456C159.465 59.1456 160.278 58.3345 160.278 57.334C160.278 56.3335 159.465 55.5225 158.462 55.5225C157.459 55.5225 156.646 56.3335 156.646 57.334C156.646 58.3345 157.459 59.1456 158.462 59.1456Z" fill="white"/>
<path d="M144.086 55.6769C144.726 55.6769 145.245 55.1592 145.245 54.5206C145.245 53.882 144.726 53.3643 144.086 53.3643C143.446 53.3643 142.927 53.882 142.927 54.5206C142.927 55.1592 143.446 55.6769 144.086 55.6769Z" fill="white"/>
<path d="M189.653 33.4263H187V56.69H189.653V33.4263Z" fill="white"/>
<path d="M198.194 45.0393C198.194 38.5207 203.657 33 210.081 33C216.543 33 221.927 38.4795 221.927 45.0393C221.927 51.5991 216.506 57.0786 210.081 57.0786C203.694 57.116 198.194 51.5991 198.194 45.0393ZM219.274 45.0393C219.274 39.87 215.082 35.4707 210.081 35.4707C205.081 35.4707 200.851 39.87 200.851 45.0393C200.851 50.2497 205.081 54.6453 210.081 54.6453C215.082 54.6453 219.274 50.2497 219.274 45.0393Z" fill="white"/>
<path d="M235.543 35.9343H227.736V33.4263H245.969V35.9343H238.159V56.69H235.506L235.543 35.9343Z" fill="white"/>
<path d="M259.891 36.6669L251.081 56.69H248.197L257.852 34.7382C258.199 33.9271 259.007 33.4263 259.853 33.4263C260.736 33.4263 261.508 33.9271 261.854 34.7382L271.509 56.69H268.625L259.891 36.6669Z" fill="white"/>
<path d="M171.296 12H172.7V9.012H174.812C176.48 9.012 177.428 7.86 177.428 6.504C177.428 5.148 176.492 3.996 174.812 3.996H171.296V12ZM175.988 6.504C175.988 7.272 175.412 7.776 174.62 7.776H172.7V5.232H174.62C175.412 5.232 175.988 5.736 175.988 6.504ZM181.721 12.144C183.581 12.144 184.709 10.764 184.709 9.096C184.709 7.44 183.581 6.06 181.721 6.06C179.885 6.06 178.745 7.44 178.745 9.096C178.745 10.764 179.885 12.144 181.721 12.144ZM181.721 11.028C180.653 11.028 180.053 10.128 180.053 9.096C180.053 8.076 180.653 7.176 181.721 7.176C182.801 7.176 183.401 8.076 183.401 9.096C183.401 10.128 182.801 11.028 181.721 11.028ZM191.755 12H193.075L194.875 6.204H193.567L192.343 10.416L190.963 6.204H189.859L188.479 10.416L187.255 6.204H185.947L187.747 12H189.067L190.411 7.752L191.755 12ZM196.11 9.096C196.11 10.932 197.406 12.144 199.146 12.144C200.07 12.144 200.922 11.856 201.498 11.304L200.922 10.476C200.514 10.884 199.842 11.112 199.278 11.112C198.186 11.112 197.526 10.392 197.43 9.516H201.906V9.216C201.906 7.392 200.79 6.06 199.05 6.06C197.334 6.06 196.11 7.416 196.11 9.096ZM199.05 7.092C200.19 7.092 200.658 7.944 200.682 8.628H197.418C197.478 7.92 197.97 7.092 199.05 7.092ZM203.87 12H205.13V8.052C205.382 7.644 206.09 7.284 206.618 7.284C206.774 7.284 206.906 7.296 207.014 7.32V6.072C206.258 6.072 205.562 6.504 205.13 7.056V6.204H203.87V12ZM208.39 9.096C208.39 10.932 209.686 12.144 211.426 12.144C212.35 12.144 213.202 11.856 213.778 11.304L213.202 10.476C212.794 10.884 212.122 11.112 211.558 11.112C210.466 11.112 209.806 10.392 209.71 9.516H214.186V9.216C214.186 7.392 213.07 6.06 211.33 6.06C209.614 6.06 208.39 7.416 208.39 9.096ZM211.33 7.092C212.47 7.092 212.938 7.944 212.962 8.628H209.698C209.758 7.92 210.25 7.092 211.33 7.092ZM220.23 12H221.49V3.996H220.23V7.008C219.762 6.396 219.09 6.06 218.37 6.06C216.87 6.06 215.79 7.236 215.79 9.108C215.79 11.016 216.882 12.144 218.37 12.144C219.114 12.144 219.786 11.784 220.23 11.208V12ZM220.23 10.26C219.942 10.692 219.33 11.028 218.73 11.028C217.734 11.028 217.098 10.224 217.098 9.108C217.098 7.98 217.734 7.176 218.73 7.176C219.33 7.176 219.942 7.524 220.23 7.956V10.26ZM227.645 12H228.905V11.208C229.349 11.784 230.009 12.144 230.765 12.144C232.241 12.144 233.333 11.016 233.333 9.108C233.333 7.236 232.253 6.06 230.765 6.06C230.033 6.06 229.361 6.396 228.905 7.008V3.996H227.645V12ZM228.905 10.26V7.968C229.181 7.536 229.805 7.176 230.393 7.176C231.401 7.176 232.037 7.98 232.037 9.108C232.037 10.236 231.401 11.028 230.393 11.028C229.805 11.028 229.181 10.692 228.905 10.26ZM235.277 13.14L235.085 14.268C235.265 14.316 235.613 14.352 235.793 14.352C236.693 14.34 237.389 14.028 237.785 13.044L240.581 6.204H239.225L237.533 10.548L235.841 6.204H234.497L236.873 12.072L236.585 12.732C236.417 13.116 236.153 13.236 235.757 13.236C235.613 13.236 235.409 13.2 235.277 13.14Z" fill="#999999"/>
</svg>
