<svg width="24" height="24" viewBox="0 0 24 24" fill="none" xmlns="http://www.w3.org/2000/svg">
<path d="M6.19048 12.3448C6.37232 12.1634 6.61866 12.0616 6.87548 12.0616C7.1323 12.0616 7.37864 12.1634 7.56048 12.3448C7.65031 12.4345 7.72158 12.541 7.7702 12.6583C7.81882 12.7756 7.84385 12.9013 7.84385 13.0283C7.84385 13.1552 7.81882 13.281 7.7702 13.3982C7.72158 13.5155 7.65031 13.6221 7.56048 13.7118L5.50548 15.7638C5.32567 15.9432 5.18301 16.1564 5.08568 16.391C4.98834 16.6257 4.93824 16.8772 4.93824 17.1313C4.93824 17.3853 4.98834 17.6369 5.08568 17.8715C5.18301 18.1062 5.32567 18.3193 5.50548 18.4988C5.86916 18.8615 6.36184 19.0652 6.87548 19.0652C7.38913 19.0652 7.88181 18.8615 8.24548 18.4988L13.0395 13.7118C13.1293 13.6221 13.2006 13.5155 13.2492 13.3982C13.2978 13.281 13.3229 13.1552 13.3229 13.0283C13.3229 12.9013 13.2978 12.7756 13.2492 12.6583C13.2006 12.541 13.1293 12.4345 13.0395 12.3448C12.9495 12.255 12.8781 12.1484 12.8294 12.0311C12.7807 11.9137 12.7556 11.7879 12.7556 11.6608C12.7556 11.5337 12.7807 11.4079 12.8294 11.2905C12.8781 11.1731 12.9495 11.0665 13.0395 10.9768C13.2213 10.7954 13.4677 10.6936 13.7245 10.6936C13.9813 10.6936 14.2276 10.7954 14.4095 10.9768C14.6793 11.246 14.8933 11.5657 15.0394 11.9178C15.1854 12.2698 15.2606 12.6472 15.2606 13.0283C15.2606 13.4094 15.1854 13.7868 15.0394 14.1388C14.8933 14.4908 14.6793 14.8106 14.4095 15.0798L9.61448 19.8668C8.88726 20.5925 7.90185 21 6.87448 21C5.84711 21 4.8617 20.5925 4.13448 19.8668C3.77485 19.5079 3.48954 19.0816 3.29487 18.6123C3.1002 18.143 3 17.6399 3 17.1318C3 16.6237 3.1002 16.1206 3.29487 15.6513C3.48954 15.182 3.77485 14.7557 4.13448 14.3968L6.19048 12.3438V12.3448ZM17.8105 11.6548C17.6286 11.8361 17.3823 11.938 17.1255 11.938C16.8687 11.938 16.6223 11.8361 16.4405 11.6548C16.3506 11.5651 16.2794 11.4585 16.2308 11.3412C16.1821 11.224 16.1571 11.0982 16.1571 10.9713C16.1571 10.8443 16.1821 10.7186 16.2308 10.6013C16.2794 10.484 16.3506 10.3775 16.4405 10.2878L18.4955 8.23578C18.6753 8.05633 18.818 7.84317 18.9153 7.60852C19.0126 7.37387 19.0627 7.12232 19.0627 6.86828C19.0627 6.61424 19.0126 6.36269 18.9153 6.12804C18.818 5.89339 18.6753 5.68023 18.4955 5.50078C18.1318 5.13805 17.6391 4.93435 17.1255 4.93435C16.6118 4.93435 16.1192 5.13805 15.7555 5.50078L10.9625 10.2878C10.8726 10.3775 10.8014 10.484 10.7528 10.6013C10.7041 10.7186 10.6791 10.8443 10.6791 10.9713C10.6791 11.0982 10.7041 11.224 10.7528 11.3412C10.8014 11.4585 10.8726 11.5651 10.9625 11.6548C11.0525 11.7445 11.1239 11.8511 11.1726 11.9685C11.2213 12.0859 11.2464 12.2117 11.2464 12.3388C11.2464 12.4659 11.2213 12.5917 11.1726 12.7091C11.1239 12.8264 11.0525 12.933 10.9625 13.0228C10.7806 13.2041 10.5343 13.306 10.2775 13.306C10.0207 13.306 9.77432 13.2041 9.59248 13.0228C9.32269 12.7536 9.10864 12.4338 8.96259 12.0818C8.81655 11.7298 8.74137 11.3524 8.74137 10.9713C8.74137 10.5902 8.81655 10.2128 8.96259 9.86076C9.10864 9.50873 9.32269 9.18897 9.59248 8.91978L14.3875 4.13278C15.1147 3.40708 16.1001 2.99951 17.1275 2.99951C18.1549 2.99951 19.1403 3.40708 19.8675 4.13278C20.2271 4.49169 20.5124 4.91799 20.7071 5.3873C20.9018 5.85661 21.002 6.3597 21.002 6.86778C21.002 7.37586 20.9018 7.87895 20.7071 8.34826C20.5124 8.81757 20.2271 9.24387 19.8675 9.60278L17.8105 11.6558V11.6548Z" fill="black"/>
</svg>
